<svg xmlns="http://www.w3.org/2000/svg" width="512" height="512" viewBox="0 0 512 512"><path fill="#FE5B67" d="M390.027 210.608H259.316v-95.172h130.711a7.307 7.307 0 0 1 7.307 7.306v80.56a7.306 7.306 0 0 1-7.307 7.306z"/><path fill="#D94C53" d="M259.316 116.957v93.651h115.19c-80.147-14.949-107.87-73.376-115.19-93.651z"/><path fill="#FFE3D1" d="M257.152 453.363c56.447 0 106.757-22.605 139.557-57.889a15.787 15.787 0 0 0 2.994-16.929c-23.431-55.612-78.414-94.669-142.551-94.669-64.31 0-119.416 39.266-142.739 95.116-2.276 5.45-1.146 11.8 2.864 16.139 32.792 35.48 83.244 58.232 139.875 58.232z"/><path fill="#E0BEA8" d="M257.152 453.363c48.395 0 92.265-16.625 124.47-43.6-14.075-55.638-64.459-96.813-124.47-96.813-60.012 0-110.396 41.176-124.47 96.813 32.205 26.976 76.077 43.6 124.47 43.6z"/><path fill="#4A6273" d="M257.152 301.943a8.665 8.665 0 0 1-8.665-8.664V114.227a8.664 8.664 0 0 1 8.665-8.664 8.664 8.664 0 0 1 8.664 8.664v179.052a8.663 8.663 0 0 1-8.664 8.664z"/><path fill="#E0BEA8" d="M137.629 340.434a154.704 154.704 0 0 0-23.216 38.562c-2.276 5.45-1.146 11.8 2.864 16.139a155.05 155.05 0 0 0 2.797 2.941 30.29 30.29 0 0 0 6.706.772c16.693 0 30.227-13.533 30.227-30.227 0-12.865-8.051-23.824-19.378-28.187z"/><ellipse cx="210.491" cy="342.652" fill="#E0BEA8" rx="28.372" ry="25.969"/><ellipse cx="290.844" cy="324.092" fill="#E0BEA8" rx="13.769" ry="12.724"/><ellipse cx="193.876" cy="403.688" fill="#CC9C81" rx="9.631" ry="8.714"/><path fill="#E0BEA8" d="M395.997 390.67c-9.442-26.594-38.656-40.5-65.251-31.059-26.596 9.443-40.913 35.772-26.36 59.953 5.698 9.468 13.309 16.807 21.997 21.782 27.664-10.05 51.792-25.936 70.326-45.872.229-.246.414-.521.625-.777a111.476 111.476 0 0 0-1.337-4.027z"/><path fill="#CC9C81" d="M157.007 368.621c0-2.283-.265-4.5-.745-6.637-8.302 10.539-15.017 22.389-19.715 35.219 11.894-4.064 20.46-15.31 20.46-28.582zM182.119 342.652c0 14.342 12.702 25.969 28.371 25.969 15.67 0 28.372-11.627 28.372-25.969 0-11.161-7.707-20.648-18.504-24.321a127.826 127.826 0 0 0-37.438 18.288c-.505 1.94-.801 3.951-.801 6.033zM277.076 324.092c0 7.027 6.164 12.725 13.768 12.725 7.604 0 13.769-5.696 13.769-12.725 0-.725-.081-1.432-.207-2.125a127.52 127.52 0 0 0-23.398-6.768c-2.43 2.295-3.932 5.43-3.932 8.893zM353.943 357.033a50.875 50.875 0 0 0-23.197 2.578c-26.596 9.443-40.913 35.772-26.36 59.953 5.692 9.459 13.295 16.794 21.977 21.77 2.146-.781 4.278-1.59 6.384-2.44.421-.171.839-.347 1.258-.519 2.186-.901 4.35-1.832 6.485-2.807.159-.073.321-.144.48-.216a187.39 187.39 0 0 0 6.863-3.332c.311-.157.618-.319.928-.479a184.08 184.08 0 0 0 13.282-7.569l.621-.394a178.483 178.483 0 0 0 12.59-8.738l.41-.313a175.408 175.408 0 0 0 5.958-4.762c-5.015-19.822-14.655-37.79-27.679-52.732z"/><circle cx="123.797" cy="194.291" r="12.75" fill="#FE5B67"/><circle cx="375.786" cy="263.061" r="6.915" fill="#283D49"/><circle cx="283.884" cy="65.444" r="6.806" fill="#283D49"/></svg>